<mxfile host="app.diagrams.net" modified="2021-09-07T07:39:24.039Z" agent="5.0 (Windows NT 10.0; Win64; x64) AppleWebKit/537.36 (KHTML, like Gecko) Chrome/92.0.4515.159 Safari/537.36" etag="wG3ZAv9JrDQ7scLT2VXp" version="15.1.0" type="github">
  <diagram id="kgpKYQtTHZ0yAKxKKP6v" name="Page-1">
    <mxGraphModel dx="1422" dy="794" grid="1" gridSize="10" guides="1" tooltips="1" connect="1" arrows="1" fold="1" page="1" pageScale="1" pageWidth="850" pageHeight="1100" math="0" shadow="0">
      <root>
        <mxCell id="0" />
        <mxCell id="1" parent="0" />
        <mxCell id="TjZYKHOrASI7Wl4yKwdB-3" value="" style="edgeStyle=orthogonalEdgeStyle;rounded=0;orthogonalLoop=1;jettySize=auto;html=1;" edge="1" parent="1" source="TjZYKHOrASI7Wl4yKwdB-1" target="TjZYKHOrASI7Wl4yKwdB-2">
          <mxGeometry relative="1" as="geometry" />
        </mxCell>
        <mxCell id="TjZYKHOrASI7Wl4yKwdB-1" value="Actor" style="shape=umlActor;verticalLabelPosition=bottom;verticalAlign=top;html=1;outlineConnect=0;" vertex="1" parent="1">
          <mxGeometry x="150" y="250" width="30" height="60" as="geometry" />
        </mxCell>
        <mxCell id="TjZYKHOrASI7Wl4yKwdB-7" value="" style="edgeStyle=orthogonalEdgeStyle;rounded=0;orthogonalLoop=1;jettySize=auto;html=1;" edge="1" parent="1" source="TjZYKHOrASI7Wl4yKwdB-2" target="TjZYKHOrASI7Wl4yKwdB-4">
          <mxGeometry relative="1" as="geometry" />
        </mxCell>
        <mxCell id="TjZYKHOrASI7Wl4yKwdB-2" value="Зберегти дані" style="rounded=0;whiteSpace=wrap;html=1;" vertex="1" parent="1">
          <mxGeometry x="105" y="380" width="120" height="60" as="geometry" />
        </mxCell>
        <mxCell id="TjZYKHOrASI7Wl4yKwdB-6" style="edgeStyle=orthogonalEdgeStyle;rounded=0;orthogonalLoop=1;jettySize=auto;html=1;entryX=0.5;entryY=0;entryDx=0;entryDy=0;exitX=0;exitY=0.5;exitDx=0;exitDy=0;" edge="1" parent="1" source="TjZYKHOrASI7Wl4yKwdB-4" target="TjZYKHOrASI7Wl4yKwdB-11">
          <mxGeometry relative="1" as="geometry">
            <mxPoint x="60" y="590" as="targetPoint" />
          </mxGeometry>
        </mxCell>
        <mxCell id="TjZYKHOrASI7Wl4yKwdB-9" style="edgeStyle=orthogonalEdgeStyle;rounded=0;orthogonalLoop=1;jettySize=auto;html=1;entryX=0.16;entryY=0.55;entryDx=0;entryDy=0;entryPerimeter=0;" edge="1" parent="1" source="TjZYKHOrASI7Wl4yKwdB-4" target="TjZYKHOrASI7Wl4yKwdB-13">
          <mxGeometry relative="1" as="geometry">
            <mxPoint x="310" y="505" as="targetPoint" />
          </mxGeometry>
        </mxCell>
        <mxCell id="TjZYKHOrASI7Wl4yKwdB-4" value="Чи маєте хмарне сховище?" style="rhombus;whiteSpace=wrap;html=1;" vertex="1" parent="1">
          <mxGeometry x="97.5" y="460" width="135" height="90" as="geometry" />
        </mxCell>
        <mxCell id="TjZYKHOrASI7Wl4yKwdB-10" value="Так" style="text;html=1;strokeColor=none;fillColor=none;align=center;verticalAlign=middle;whiteSpace=wrap;rounded=0;" vertex="1" parent="1">
          <mxGeometry x="240" y="480" width="40" height="20" as="geometry" />
        </mxCell>
        <mxCell id="TjZYKHOrASI7Wl4yKwdB-15" style="edgeStyle=orthogonalEdgeStyle;rounded=0;orthogonalLoop=1;jettySize=auto;html=1;entryX=0.126;entryY=0.582;entryDx=0;entryDy=0;entryPerimeter=0;" edge="1" parent="1" source="TjZYKHOrASI7Wl4yKwdB-11" target="TjZYKHOrASI7Wl4yKwdB-13">
          <mxGeometry relative="1" as="geometry" />
        </mxCell>
        <mxCell id="TjZYKHOrASI7Wl4yKwdB-11" value="Обрати хмарне сховище, створити свій акаунт" style="rounded=0;whiteSpace=wrap;html=1;" vertex="1" parent="1">
          <mxGeometry x="50" y="650" width="120" height="60" as="geometry" />
        </mxCell>
        <mxCell id="TjZYKHOrASI7Wl4yKwdB-13" value="операції з даними на хмарі" style="ellipse;shape=cloud;whiteSpace=wrap;html=1;" vertex="1" parent="1">
          <mxGeometry x="250" y="620" width="230" height="134" as="geometry" />
        </mxCell>
        <mxCell id="TjZYKHOrASI7Wl4yKwdB-23" value="" style="edgeStyle=orthogonalEdgeStyle;rounded=0;orthogonalLoop=1;jettySize=auto;html=1;" edge="1" parent="1" source="TjZYKHOrASI7Wl4yKwdB-16" target="TjZYKHOrASI7Wl4yKwdB-17">
          <mxGeometry relative="1" as="geometry" />
        </mxCell>
        <mxCell id="TjZYKHOrASI7Wl4yKwdB-16" value="Actor" style="shape=umlActor;verticalLabelPosition=bottom;verticalAlign=top;html=1;outlineConnect=0;" vertex="1" parent="1">
          <mxGeometry x="590" y="250" width="30" height="60" as="geometry" />
        </mxCell>
        <mxCell id="TjZYKHOrASI7Wl4yKwdB-24" value="" style="edgeStyle=orthogonalEdgeStyle;rounded=0;orthogonalLoop=1;jettySize=auto;html=1;" edge="1" parent="1" source="TjZYKHOrASI7Wl4yKwdB-17" target="TjZYKHOrASI7Wl4yKwdB-18">
          <mxGeometry relative="1" as="geometry" />
        </mxCell>
        <mxCell id="TjZYKHOrASI7Wl4yKwdB-17" value="переглянути раніше збережені дані" style="rounded=0;whiteSpace=wrap;html=1;" vertex="1" parent="1">
          <mxGeometry x="545" y="380" width="120" height="60" as="geometry" />
        </mxCell>
        <mxCell id="TjZYKHOrASI7Wl4yKwdB-26" value="" style="edgeStyle=orthogonalEdgeStyle;rounded=0;orthogonalLoop=1;jettySize=auto;html=1;" edge="1" parent="1" source="TjZYKHOrASI7Wl4yKwdB-18" target="TjZYKHOrASI7Wl4yKwdB-25">
          <mxGeometry relative="1" as="geometry">
            <Array as="points">
              <mxPoint x="450" y="550" />
            </Array>
          </mxGeometry>
        </mxCell>
        <mxCell id="TjZYKHOrASI7Wl4yKwdB-33" style="edgeStyle=orthogonalEdgeStyle;rounded=0;orthogonalLoop=1;jettySize=auto;html=1;exitX=1;exitY=0.5;exitDx=0;exitDy=0;entryX=0.5;entryY=0;entryDx=0;entryDy=0;" edge="1" parent="1" source="TjZYKHOrASI7Wl4yKwdB-18" target="TjZYKHOrASI7Wl4yKwdB-29">
          <mxGeometry relative="1" as="geometry" />
        </mxCell>
        <mxCell id="TjZYKHOrASI7Wl4yKwdB-18" value="Чи маєте доступ до акаунта?" style="rhombus;whiteSpace=wrap;html=1;" vertex="1" parent="1">
          <mxGeometry x="530" y="500" width="150" height="100" as="geometry" />
        </mxCell>
        <mxCell id="TjZYKHOrASI7Wl4yKwdB-21" value="ні" style="text;html=1;strokeColor=none;fillColor=none;align=center;verticalAlign=middle;whiteSpace=wrap;rounded=0;" vertex="1" parent="1">
          <mxGeometry x="70" y="480" width="40" height="20" as="geometry" />
        </mxCell>
        <mxCell id="TjZYKHOrASI7Wl4yKwdB-27" value="" style="edgeStyle=orthogonalEdgeStyle;rounded=0;orthogonalLoop=1;jettySize=auto;html=1;entryX=0.578;entryY=0.142;entryDx=0;entryDy=0;entryPerimeter=0;" edge="1" parent="1" source="TjZYKHOrASI7Wl4yKwdB-25" target="TjZYKHOrASI7Wl4yKwdB-13">
          <mxGeometry relative="1" as="geometry" />
        </mxCell>
        <mxCell id="TjZYKHOrASI7Wl4yKwdB-25" value="Входимо до акаунту" style="rounded=0;whiteSpace=wrap;html=1;" vertex="1" parent="1">
          <mxGeometry x="365" y="520" width="120" height="60" as="geometry" />
        </mxCell>
        <mxCell id="TjZYKHOrASI7Wl4yKwdB-28" value="Так" style="text;html=1;strokeColor=none;fillColor=none;align=center;verticalAlign=middle;whiteSpace=wrap;rounded=0;" vertex="1" parent="1">
          <mxGeometry x="500" y="530" width="40" height="20" as="geometry" />
        </mxCell>
        <mxCell id="TjZYKHOrASI7Wl4yKwdB-35" style="edgeStyle=orthogonalEdgeStyle;rounded=0;orthogonalLoop=1;jettySize=auto;html=1;exitX=0.5;exitY=1;exitDx=0;exitDy=0;" edge="1" parent="1" source="TjZYKHOrASI7Wl4yKwdB-29" target="TjZYKHOrASI7Wl4yKwdB-13">
          <mxGeometry relative="1" as="geometry" />
        </mxCell>
        <mxCell id="TjZYKHOrASI7Wl4yKwdB-29" value="Отримати доступ до акаунту" style="rounded=0;whiteSpace=wrap;html=1;" vertex="1" parent="1">
          <mxGeometry x="700" y="630" width="120" height="60" as="geometry" />
        </mxCell>
        <mxCell id="TjZYKHOrASI7Wl4yKwdB-30" value="Ні" style="text;html=1;strokeColor=none;fillColor=none;align=center;verticalAlign=middle;whiteSpace=wrap;rounded=0;" vertex="1" parent="1">
          <mxGeometry x="680" y="530" width="40" height="20" as="geometry" />
        </mxCell>
      </root>
    </mxGraphModel>
  </diagram>
</mxfile>
